<?xml version="1.0" encoding="iso-8859-1"?>
<!-- Generator: Adobe Illustrator 19.0.0, SVG Export Plug-In . SVG Version: 6.00 Build 0)  -->
<svg version="1.1" id="Layer_1" xmlns="http://www.w3.org/2000/svg" xmlns:xlink="http://www.w3.org/1999/xlink" x="0px" y="0px"
	 viewBox="0 0 512 512" style="enable-background:new 0 0 512 512;" xml:space="preserve">
<path style="fill:#507C5C;" d="M289.833,284.936c-0.466,0-0.936-0.024-1.409-0.074c-7.383-0.769-12.745-7.378-11.976-14.761
	L298.22,61.114c0.922-8.852-1.851-17.368-7.811-23.98c-5.957-6.612-14.14-10.253-23.04-10.253h-24.157
	c-8.901,0-17.083,3.641-23.042,10.251c-5.958,6.612-8.733,15.128-7.811,23.98L234.131,270.1c0.769,7.383-4.593,13.992-11.976,14.761
	c-7.386,0.773-13.992-4.593-14.761-11.976L185.622,63.9c-1.696-16.285,3.617-32.6,14.578-44.762C211.163,6.975,226.839,0,243.211,0
	h24.157c16.372,0,32.05,6.975,43.011,19.137c10.961,12.161,16.274,28.477,14.578,44.762l-21.772,208.987
	C302.466,279.797,296.63,284.936,289.833,284.936z"/>
<path style="fill:#CFF09E;" d="M243.191,234.346c-48.967,6.595-82.885,54.839-75.757,107.755
	c10.466,77.698,89.521,59.284,72.092,146.08c-9.727,48.441,116.854-83.687,105.233-169.966
	C337.631,265.301,292.158,227.75,243.191,234.346z"/>
<g>
	<path style="fill:#507C5C;" d="M243.264,512h-0.001c-5.405,0-10.195-2.214-13.488-6.235c-6.013-7.341-4.065-17.04-3.425-20.229
		c7.957-39.631-5.72-50.909-26.426-67.98c-17.987-14.828-40.371-33.283-45.809-73.661c-3.901-28.957,2.907-57.643,19.168-80.772
		c16.488-23.452,40.678-38.402,68.115-42.098c4.296-0.578,8.66-0.871,12.973-0.871c51.732,0,96.317,41.386,103.711,96.268
		c7.245,53.784-31.742,120.391-67.328,161.087C270.738,500.396,254.761,512,243.264,512z M254.37,247.036
		c-3.117,0-6.274,0.212-9.384,0.632c-19.929,2.684-37.582,13.664-49.713,30.917c-12.356,17.575-17.512,39.495-14.518,61.724
		c4.032,29.93,19.69,42.84,36.268,56.507c19.847,16.363,42.089,34.697,37.92,79.065c11.024-10.073,26.765-27.753,41.925-51.132
		c25.616-39.502,38.217-77.677,34.572-104.739C325.834,278.408,292.702,247.036,254.37,247.036z"/>
	<path style="fill:#507C5C;" d="M255.289,107.526h-51.664c-7.423,0-13.441-6.018-13.441-13.441c0-7.423,6.018-13.441,13.441-13.441
		h51.664c7.423,0,13.441,6.018,13.441,13.441C268.73,101.509,262.713,107.526,255.289,107.526z"/>
</g>
<g>
</g>
<g>
</g>
<g>
</g>
<g>
</g>
<g>
</g>
<g>
</g>
<g>
</g>
<g>
</g>
<g>
</g>
<g>
</g>
<g>
</g>
<g>
</g>
<g>
</g>
<g>
</g>
<g>
</g>
</svg>
